<svg xmlns="http://www.w3.org/2000/svg" viewBox="0 0 411.83 457.83"><defs><style>.cls-1{fill:#fff;}.cls-2,.cls-3{fill:none;}.cls-2{stroke:#000;stroke-miterlimit:10;stroke-width:1.03px;}.cls-4{fill:#d5d6e2;}.cls-5{fill:#f0f1f7;}.cls-6{fill:#259327;}.cls-7{fill:#28c628;}.cls-8{fill:#31a839;}</style></defs><title>turnip</title><g id="Layer_2" data-name="Layer 2"><path class="cls-1" d="M378.43,269.22h0C339.92,350.87,216.31,444.41,200,456.52h0a14.07,14.07,0,0,1-3.18-2.06l-35.38-30.32-64.16-55L67,343.17a49.21,49.21,0,0,1-8.88-10c-13.85-20.66-52.31-90.07,4.32-155.1l.08-.1c1.06-1.27,12.45-14.21,44.66-24.07,26.08,8.06,61.06,13,99.51,13,38.08,0,72.76-4.84,98.76-12.77,31.63,9.83,42.84,22.58,43.89,23.84h0C376.68,209.38,381.9,241.77,378.43,269.22Z"/><path class="cls-2" d="M205.92,142.76"/><path class="cls-2" d="M206.68,142.77"/><path class="cls-3" d="M210.44,129.4a133,133,0,0,0-22.22,13.34"/></g><g id="Layer_6" data-name="Layer 6"><path class="cls-4" d="M378.43,269.23c-3.75,29.49-17.53,53.28-24.7,64a49.51,49.51,0,0,1-8.88,10L215,454.46a14,14,0,0,1-15,2.06C216.31,444.41,339.92,350.87,378.43,269.23Z"/><path class="cls-5" d="M305.44,154.17c-26,7.93-60.68,12.77-98.76,12.77-38.45,0-73.43-4.94-99.51-13,4.4-1.35,9.19-2.64,14.4-3.83a298,298,0,0,1,47.55-6.6q9.07-.58,19.1-.77,8.49-.15,17.7,0c13.4-.26,25.64,0,36.79.74C269.37,145.21,289.88,149.34,305.44,154.17Z"/></g><g id="Layer_8" data-name="Layer 8"><path d="M180.15,200.79a6.93,6.93,0,0,1-7,7H123.84a7,7,0,1,1,0-13.94h49.34A7,7,0,0,1,180.15,200.79Z"/><path d="M171.51,245.64c0,28-5.73,50.77-12.8,50.77s-12.82-22.74-12.82-50.77c0-15.6,1.77-29.56,4.57-38.88h16.48C169.74,216.08,171.51,230,171.51,245.64Z"/><ellipse cx="207.53" cy="360.32" rx="9.3" ry="22.6"/><path d="M296.49,200.79a7,7,0,0,1-7,7H240.18a7,7,0,1,1,0-13.94h49.34a6.95,6.95,0,0,1,7,7Z"/><path d="M267.47,245.64c0,28-5.73,50.77-12.82,50.77s-12.79-22.74-12.79-50.77c0-15.6,1.77-29.56,4.57-38.88H262.9C265.7,216.08,267.47,230,267.47,245.64Z"/></g><g id="Layer_4" data-name="Layer 4"><path class="cls-6" d="M278.27,45.08l-3.85,10.65L242.71,143.5c-11.15-.71-23.39-1-36.79-.74-13.41-.26-25.64,0-36.8.75L137.4,55.67,133.58,45.1S122.38,0,205.92,0C288.36,0,278.54,43.92,278.27,45.08Z"/><path class="cls-7" d="M137.4,55.67c-18.42-8.9-46.55-8.59-46.55-8.59S84.52,35.6,45.36,34c0,0,70.81-6.72,88.22,11.08Z"/><path class="cls-8" d="M169.12,143.51C163.61,133.17,124.56,68.91,0,56.31c0,0,10.94-8.84,90.85-9.23,0,0,28.13-.31,46.55,8.59Z"/><path class="cls-7" d="M366.47,34C327.3,35.6,321,47.08,321,47.08c-2,0-28.82.31-46.55,8.65l3.85-10.65C295.71,27.3,366.47,34,366.47,34Z"/><path class="cls-8" d="M411.83,56.31C287.31,68.9,248.24,133.13,242.71,143.5l31.71-87.77C292.15,47.39,319,47.09,321,47.08h.12C400.9,47.48,411.83,56.31,411.83,56.31Z"/></g></svg>